<svg xml:space="preserve" viewBox="0 153.3334 1000 674" version="1.1" xmlns:xlink="http://www.w3.org/1999/xlink" xmlns="http://www.w3.org/2000/svg" style="max-height: 500px" width="1000" height="674">
<desc>Created with Fabric.js 3.5.0</desc>
<defs>
</defs>
<rect fill="#ffffff" height="100%" width="100%" y="0" x="0"/>
<g id="283674" transform="matrix(-1.0089 0 0 1.0089 500.0082 500.0057)">
<g style="">
		<g transform="matrix(1 0 0 1 -25.5439 -19)">
<circle r="293" cy="0" cx="0" style="stroke: none; stroke-width: 0; stroke-dasharray: none; stroke-linecap: butt; stroke-dashoffset: 0; stroke-linejoin: miter; stroke-miterlimit: 4; is-custom-font: none; font-file-url: none; fill: rgb(230,230,230); fill-rule: nonzero; opacity: 1;"/>
</g>
		<g transform="matrix(1 0 0 1 125.3261 -260.2733)">
<path stroke-linecap="round" d="m 693.81633 93.37235 c -0.7161 1.6475 -1.46513 3.27738 -2.24611 4.88892 c -63.77801 2.56127 -164.63218 5.61343 -233.1492 2.604 c -0.4141 -0.80852 -0.82023 -1.62158 -1.21823 -2.43917 c -4.30371 -8.8408 2.74425 -19.01754 12.51639 -17.92801 l 0.22835 0.02553 s 12.80688 -38.42064 46.95856 -27.74824 c 0 0 76.84128 -120.32036 151.54807 7.08662 c 0 0 0.42333 -0.07649 1.2114 -0.14626 c 18.09291 -1.60185 31.39139 16.9985 24.15078 33.65661 Z" transform="translate(-575.87, -51.7267)" style="stroke: none; stroke-width: 0; stroke-dasharray: none; stroke-linecap: butt; stroke-dashoffset: 0; stroke-linejoin: miter; stroke-miterlimit: 4; is-custom-font: none; font-file-url: none; fill: rgb(255,255,255); fill-rule: nonzero; opacity: 1;"/>
</g>
		<g transform="matrix(1 0 0 1 272.9561 128)">
<rect height="329" width="38" ry="0" rx="0" y="-164.5" x="-19" style="stroke: none; stroke-width: 0; stroke-dasharray: none; stroke-linecap: butt; stroke-dashoffset: 0; stroke-linejoin: miter; stroke-miterlimit: 4; is-custom-font: none; font-file-url: none; fill: rgb(47,46,67); fill-rule: nonzero; opacity: 1;"/>
</g>
		<g transform="matrix(1 0 0 1 335.325 261.3374)">
<path stroke-linecap="round" d="m 840.4971 610.38435 c -2.36081 -13.48354 -5.26636 -27.0211 -11.08192 -39.41298 c -5.81556 -12.39187 -14.81323 -23.67707 -26.93319 -30.0399 c -19.00679 -9.97834 -44.50251 -5.46228 -58.92552 10.43747 c -14.42301 15.89975 -16.44023 41.71366 -4.6622 59.66089" transform="translate(-785.8689, -573.3374)" style="stroke: none; stroke-width: 0; stroke-dasharray: none; stroke-linecap: butt; stroke-dashoffset: 0; stroke-linejoin: miter; stroke-miterlimit: 4; is-custom-font: none; font-file-url: none; fill: rgb(230,230,230); fill-rule: nonzero; opacity: 1;"/>
</g>
		<g transform="matrix(1 0 0 1 224.7926 265.3506)">
<path stroke-linecap="round" d="m 742.74988 612.01543 c -1.96558 -24.77358 -15.46333 -48.79102 -36.65984 -61.76414 s -49.77906 -13.76498 -70.74036 -0.41514 s -32.37785 40.85949 -25.35371 64.6976" transform="translate(-675.3365, -577.3506)" style="stroke: none; stroke-width: 0; stroke-dasharray: none; stroke-linecap: butt; stroke-dashoffset: 0; stroke-linejoin: miter; stroke-miterlimit: 4; is-custom-font: none; font-file-url: none; fill: rgb(230,230,230); fill-rule: nonzero; opacity: 1;"/>
</g>
		<g transform="matrix(1 0 0 1 418.2169 283.8861)">
<path stroke-linecap="round" d="m 901.08774 611.40652 c -4.31433 -16.47012 -18.78124 -29.81691 -35.54495 -32.79285 c -8.216 -1.45853 -17.56384 -0.21574 -23.28132 5.86212 c -7.01074 7.45263 -6.24592 19.0772 -5.03265 29.23693" transform="translate(-868.7608, -595.8861)" style="stroke: none; stroke-width: 0; stroke-dasharray: none; stroke-linecap: butt; stroke-dashoffset: 0; stroke-linejoin: miter; stroke-miterlimit: 4; is-custom-font: none; font-file-url: none; fill: rgb(230,230,230); fill-rule: nonzero; opacity: 1;"/>
</g>
		<g transform="matrix(1 0 0 1 -25.5439 -61)">
<circle r="129" cy="0" cx="0" style="stroke: none; stroke-width: 0; stroke-dasharray: none; stroke-linecap: butt; stroke-dashoffset: 0; stroke-linejoin: miter; stroke-miterlimit: 4; is-custom-font: none; font-file-url: none; fill: rgb(255,99,99); fill-rule: nonzero; opacity: 1;"/>
</g>
		<g transform="matrix(1 0 0 1 -0.0875 302)">
<path stroke-linecap="round" d="m 900.91283 611.7391 c 0 5.52285 -392.53958 12.2609 -573.41283 12.2609 S 0 619.52285 0 614 s 146.62674 -10 327.5 -10 s 573.41283 2.21626 573.41283 7.7391 Z" transform="translate(-450.4564, -614)" style="stroke: none; stroke-width: 0; stroke-dasharray: none; stroke-linecap: butt; stroke-dashoffset: 0; stroke-linejoin: miter; stroke-miterlimit: 4; is-custom-font: none; font-file-url: none; fill: rgb(230,230,230); fill-rule: nonzero; opacity: 1;"/>
</g>
		<g transform="matrix(1 0 0 1 -334.9628 211.5)">
<polygon points="-46.1022,-14.0175 -37.5811,19.5 46.1022,34 46.1022,-29.903 -46.1022,-34 -46.1022,-14.0175" style="stroke: none; stroke-width: 0; stroke-dasharray: none; stroke-linecap: butt; stroke-dashoffset: 0; stroke-linejoin: miter; stroke-miterlimit: 4; is-custom-font: none; font-file-url: none; fill: rgb(47,46,67); fill-rule: nonzero; opacity: 1;"/>
</g>
		<g transform="matrix(1 0 0 1 -82.0439 211)">
<rect height="100" width="427" ry="0" rx="0" y="-50" x="-213.5" style="stroke: none; stroke-width: 0; stroke-dasharray: none; stroke-linecap: butt; stroke-dashoffset: 0; stroke-linejoin: miter; stroke-miterlimit: 4; is-custom-font: none; font-file-url: none; fill: rgb(47,46,67); fill-rule: nonzero; opacity: 1;"/>
</g>
		<g transform="matrix(1 0 0 1 -319.5439 248)">
<path stroke-linecap="round" d="m 176 560 c 0 28.16652 -10.83333 51 -47.5 51 c -31.66667 0 -42.5 -22.83348 -42.5 -51 s 16.26647 -51 42.5 -51 s 47.5 22.83348 47.5 51 Z" transform="translate(-131, -560)" style="stroke: none; stroke-width: 0; stroke-dasharray: none; stroke-linecap: butt; stroke-dashoffset: 0; stroke-linejoin: miter; stroke-miterlimit: 4; is-custom-font: none; font-file-url: none; fill: rgb(47,46,67); fill-rule: nonzero; opacity: 1;"/>
</g>
		<g transform="matrix(1 0 0 1 -334.5439 245.5)">
<ellipse ry="39.5" rx="20" cy="0" cx="0" style="stroke: none; stroke-width: 0; stroke-dasharray: none; stroke-linecap: butt; stroke-dashoffset: 0; stroke-linejoin: miter; stroke-miterlimit: 4; is-custom-font: none; font-file-url: none; fill: rgb(255,255,255); fill-rule: nonzero; opacity: 1;"/>
</g>
		<g transform="matrix(1 0 0 1 -334.5439 242)">
<circle r="14" cy="0" cx="0" style="stroke: none; stroke-width: 0; stroke-dasharray: none; stroke-linecap: butt; stroke-dashoffset: 0; stroke-linejoin: miter; stroke-miterlimit: 4; is-custom-font: none; font-file-url: none; fill: rgb(47,46,67); fill-rule: nonzero; opacity: 1;"/>
</g>
		<g transform="matrix(1 0 0 1 125.4561 238)">
<ellipse ry="64" rx="57" cy="0" cx="0" style="stroke: none; stroke-width: 0; stroke-dasharray: none; stroke-linecap: butt; stroke-dashoffset: 0; stroke-linejoin: miter; stroke-miterlimit: 4; is-custom-font: none; font-file-url: none; fill: rgb(47,46,67); fill-rule: nonzero; opacity: 1;"/>
</g>
		<g transform="matrix(1 0 0 1 -144.5439 244)">
<ellipse ry="48" rx="44" cy="0" cx="0" style="stroke: none; stroke-width: 0; stroke-dasharray: none; stroke-linecap: butt; stroke-dashoffset: 0; stroke-linejoin: miter; stroke-miterlimit: 4; is-custom-font: none; font-file-url: none; fill: rgb(47,46,67); fill-rule: nonzero; opacity: 1;"/>
</g>
		<g transform="matrix(1 0 0 1 -64.5439 248)">
<ellipse ry="64" rx="57" cy="0" cx="0" style="stroke: none; stroke-width: 0; stroke-dasharray: none; stroke-linecap: butt; stroke-dashoffset: 0; stroke-linejoin: miter; stroke-miterlimit: 4; is-custom-font: none; font-file-url: none; fill: rgb(47,46,67); fill-rule: nonzero; opacity: 1;"/>
</g>
		<g transform="matrix(1 0 0 1 -75.0439 244)">
<ellipse ry="47" rx="35.5" cy="0" cx="0" style="stroke: none; stroke-width: 0; stroke-dasharray: none; stroke-linecap: butt; stroke-dashoffset: 0; stroke-linejoin: miter; stroke-miterlimit: 4; is-custom-font: none; font-file-url: none; fill: rgb(255,255,255); fill-rule: nonzero; opacity: 1;"/>
</g>
		<g transform="matrix(1 0 0 1 -75.5439 238)">
<circle r="19" cy="0" cx="0" style="stroke: none; stroke-width: 0; stroke-dasharray: none; stroke-linecap: butt; stroke-dashoffset: 0; stroke-linejoin: miter; stroke-miterlimit: 4; is-custom-font: none; font-file-url: none; fill: rgb(47,46,67); fill-rule: nonzero; opacity: 1;"/>
</g>
		<g transform="matrix(1 0 0 1 -86.7939 129.425)">
<path stroke-linecap="round" d="m 48.5 527.82823 v -76.10193 c 0 -6.68131 5.41627 -12.09758 12.09758 -12.09758 h 16.14697 s 13.25545 -79.62872 38.25545 -90.62872 s 249 -61 372 -12 l 41 75 s 93 0 103 21 c 0 0 44 -11 48 37 l -11 56 l -4 20 l -217 -7 l -40 -5 s -6 -46 -35 -46 s -41 7 -41 7 c 0 0 -22 36 -15 72 h -162.94161 s -7.05839 -56 -40.05839 -57 c -15.0264 -0.45535 -30 -6 -35 33 l -17.90952 -2.12486 c -6.61102 -0.78436 -11.59048 -6.38953 -11.59048 -13.04692 Z" transform="translate(-363.75, -441.4251)" style="stroke: none; stroke-width: 0; stroke-dasharray: none; stroke-linecap: butt; stroke-dashoffset: 0; stroke-linejoin: miter; stroke-miterlimit: 4; is-custom-font: none; font-file-url: none; fill: rgb(1,102,48); fill-rule: nonzero; opacity: 1;"/>
</g>
		<g transform="matrix(1 0 0 1 -38.2322 60.9838)">
<path stroke-linecap="round" d="m 520.34789 410.49985 h -195.64551 c -6.44775 0 -11.875 -4.62012 -12.90527 -10.98486 l -7.36572 -45.53418 c -0.52881 -3.27148 0.29785 -6.51318 2.32861 -9.12842 c 2.02881 -2.61279 4.96045 -4.21484 8.25586 -4.51221 c 106.33057 -9.59375 149.72266 -2.64648 163.44336 0.78516 c 8.42334 2.10645 15.50684 8.1333 18.94824 16.12158 l 22.94043 53.25293 Z" transform="translate(-412.3117, -372.9838)" style="stroke: none; stroke-width: 0; stroke-dasharray: none; stroke-linecap: butt; stroke-dashoffset: 0; stroke-linejoin: miter; stroke-miterlimit: 4; is-custom-font: none; font-file-url: none; fill: rgb(255,255,255); fill-rule: nonzero; opacity: 1;"/>
</g>
		<g transform="matrix(1 0 0 1 -188.8452 72.5082)">
<path stroke-linecap="round" d="m 237.80444 419.64535 c -1.5708 0 -3.10596 -0.03223 -4.60156 -0.10107 c -2.51709 -0.11572 -4.86719 -1.30225 -6.44775 -3.25537 c -1.57129 -1.94189 -2.23828 -4.46973 -1.82959 -6.93506 l 7.92725 -47.85645 c 0.62891 -3.79639 3.73438 -6.78271 7.55127 -7.2627 l 38.08154 -4.79297 c 4.50049 -0.56836 8.65137 2.34668 9.64502 6.77783 l 10.24316 45.69434 c 0.51318 2.28857 0.104 4.63867 -1.15234 6.61768 c -1.25391 1.9751 -3.20215 3.34326 -5.48584 3.85156 c -12.62207 2.80908 -35.53613 7.26172 -53.93115 7.26221 Z" transform="translate(-261.6987, -384.5082)" style="stroke: none; stroke-width: 0; stroke-dasharray: none; stroke-linecap: butt; stroke-dashoffset: 0; stroke-linejoin: miter; stroke-miterlimit: 4; is-custom-font: none; font-file-url: none; fill: rgb(255,255,255); fill-rule: nonzero; opacity: 1;"/>
</g>
		<g transform="matrix(1 0 0 1 -283.1429 80.1693)">
<path stroke-linecap="round" d="m 128.06664 428.77963 c -2.37891 0 -4.63672 -1.0835 -6.12402 -2.96436 c -1.59912 -2.02197 -2.09521 -4.69922 -1.32764 -7.16162 c 6.13428 -19.66797 17.43262 -53.11084 24.18213 -56.11084 c 6.72168 -2.9873 41.37256 -5.64746 61.42969 -6.96729 c 2.39648 -0.1543 4.69434 0.7749 6.30273 2.55811 c 1.61084 1.78564 2.30273 4.16992 1.89893 6.54199 l -8.97217 52.74463 c -0.60596 3.56299 -3.54736 6.22705 -7.15283 6.47852 l -69.69092 4.8623 c -0.18213 0.0127 -0.36475 0.01855 -0.5459 0.01855 Z" transform="translate(-167.4009, -392.1693)" style="stroke: none; stroke-width: 0; stroke-dasharray: none; stroke-linecap: butt; stroke-dashoffset: 0; stroke-linejoin: miter; stroke-miterlimit: 4; is-custom-font: none; font-file-url: none; fill: rgb(255,255,255); fill-rule: nonzero; opacity: 1;"/>
</g>
		<g transform="matrix(1 0 0 1 -198.9409 177.5)">
<polygon points="-54.603,60.5 -54.603,-38.66 -39.7495,-60.5 54.603,-60.5 41.397,-34.5 44.442,60.5 -54.603,60.5" style="stroke: rgb(47,46,67); stroke-width: 1; stroke-dasharray: none; stroke-linecap: round; stroke-dashoffset: 0; stroke-linejoin: miter; stroke-miterlimit: 10; is-custom-font: none; font-file-url: none; fill: none; fill-rule: nonzero; opacity: 1;"/>
</g>
		<g transform="matrix(1 0 0 1 -268.6733 238)">
<line y2="0" x2="15.129400000000004" y1="0" x1="-15.129400000000004" style="stroke: rgb(47,46,67); stroke-width: 1; stroke-dasharray: none; stroke-linecap: round; stroke-dashoffset: 0; stroke-linejoin: miter; stroke-miterlimit: 10; is-custom-font: none; font-file-url: none; fill: none; fill-rule: nonzero; opacity: 1;"/>
</g>
		<g transform="matrix(1 0 0 1 -298.4164 158.7413)">
<path stroke-linecap="round" d="m 102.25489 509.48252 s 5.74511 -67.47928 15.74511 -70.9809 l 84 -6.50162" transform="translate(-152.1274, -470.7413)" style="stroke: rgb(47,46,67); stroke-width: 1; stroke-dasharray: none; stroke-linecap: round; stroke-dashoffset: 0; stroke-linejoin: miter; stroke-miterlimit: 10; is-custom-font: none; font-file-url: none; fill: none; fill-rule: nonzero; opacity: 1;"/>
</g>
		<g transform="matrix(1 0 0 1 -320.8582 150)">
<line y2="0" x2="6.685699999999997" y1="0" x1="-6.685699999999997" style="stroke: rgb(47,46,67); stroke-width: 1; stroke-dasharray: none; stroke-linecap: round; stroke-dashoffset: 0; stroke-linejoin: miter; stroke-miterlimit: 10; is-custom-font: none; font-file-url: none; fill: none; fill-rule: nonzero; opacity: 1;"/>
</g>
		<g transform="matrix(1 0 0 1 -235.1574 142.0571)">
<rect height="7.8858" width="17.2271" ry="0" rx="0" y="-3.9429" x="-8.61355" style="stroke: rgb(47,46,67); stroke-width: 1; stroke-dasharray: none; stroke-linecap: round; stroke-dashoffset: 0; stroke-linejoin: miter; stroke-miterlimit: 10; is-custom-font: none; font-file-url: none; fill: none; fill-rule: nonzero; opacity: 1;"/>
</g>
		<g transform="matrix(1 0 0 1 19.3681 137)">
<path stroke-linecap="round" d="m 306.20602 429 l 176.29398 -6.5 s 21.4023 11.48252 26.20115 48.24126 l 118.79885 4.75874 s 11 -27 3.5 -42.5" transform="translate(-469.9119, -449)" style="stroke: rgb(47,46,67); stroke-width: 1; stroke-dasharray: none; stroke-linecap: round; stroke-dashoffset: 0; stroke-linejoin: miter; stroke-miterlimit: 10; is-custom-font: none; font-file-url: none; fill: none; fill-rule: nonzero; opacity: 1;"/>
</g>
		<g transform="matrix(1 0 0 1 23.4561 161)">
<circle r="23" cy="0" cx="0" style="stroke: none; stroke-width: 0; stroke-dasharray: none; stroke-linecap: butt; stroke-dashoffset: 0; stroke-linejoin: miter; stroke-miterlimit: 4; is-custom-font: none; font-file-url: none; fill: rgb(47,46,67); fill-rule: nonzero; opacity: 1;"/>
</g>
		<g transform="matrix(1 0 0 1 23.4561 161)">
<circle r="17" cy="0" cx="0" style="stroke: none; stroke-width: 0; stroke-dasharray: none; stroke-linecap: butt; stroke-dashoffset: 0; stroke-linejoin: miter; stroke-miterlimit: 4; is-custom-font: none; font-file-url: none; fill: rgb(255,255,255); fill-rule: nonzero; opacity: 1;"/>
</g>
		<g transform="matrix(1 0 0 1 212.9561 165.5)">
<ellipse ry="22" rx="18" cy="0" cx="0" style="stroke: none; stroke-width: 0; stroke-dasharray: none; stroke-linecap: butt; stroke-dashoffset: 0; stroke-linejoin: miter; stroke-miterlimit: 4; is-custom-font: none; font-file-url: none; fill: rgb(47,46,67); fill-rule: nonzero; opacity: 1;"/>
</g>
		<g transform="matrix(1 0 0 1 211.4561 166)">
<ellipse ry="18" rx="12" cy="0" cx="0" style="stroke: none; stroke-width: 0; stroke-dasharray: none; stroke-linecap: butt; stroke-dashoffset: 0; stroke-linejoin: miter; stroke-miterlimit: 4; is-custom-font: none; font-file-url: none; fill: rgb(255,255,255); fill-rule: nonzero; opacity: 1;"/>
</g>
		<g transform="matrix(1 0 0 1 19.9561 196)">
<ellipse ry="8.5" rx="6" cy="0" cx="0" style="stroke: none; stroke-width: 0; stroke-dasharray: none; stroke-linecap: butt; stroke-dashoffset: 0; stroke-linejoin: miter; stroke-miterlimit: 4; is-custom-font: none; font-file-url: none; fill: rgb(255,255,255); fill-rule: nonzero; opacity: 1;"/>
</g>
		<g transform="matrix(1 0 0 1 209.4561 204)">
<ellipse ry="8" rx="5" cy="0" cx="0" style="stroke: none; stroke-width: 0; stroke-dasharray: none; stroke-linecap: butt; stroke-dashoffset: 0; stroke-linejoin: miter; stroke-miterlimit: 4; is-custom-font: none; font-file-url: none; fill: rgb(255,255,255); fill-rule: nonzero; opacity: 1;"/>
</g>
		<g transform="matrix(1 0 0 1 118.9561 185)">
<path stroke-linecap="round" d="m 642 517 h -145 l 3 -20.43277 c 0 -10.80668 8.76055 -19.56723 19.56723 -19.56723 h 102.06411 c 11.2493 0 20.36866 9.11936 20.36866 20.36866 v 19.63134 Z" transform="translate(-569.5, -497)" style="stroke: none; stroke-width: 0; stroke-dasharray: none; stroke-linecap: butt; stroke-dashoffset: 0; stroke-linejoin: miter; stroke-miterlimit: 4; is-custom-font: none; font-file-url: none; fill: rgb(47,46,67); fill-rule: nonzero; opacity: 1;"/>
</g>
		<g transform="matrix(1 0 0 1 239.5164 -33.3348)">
<path stroke-linecap="round" d="m 709.95494 315.8501 s -54.45494 -7.38951 -35.95494 -74.36981 h 7.5 s -9 34.01971 26 51.01971 l 2.45494 23.3501 Z" transform="translate(-690.0603, -278.6652)" style="stroke: none; stroke-width: 0; stroke-dasharray: none; stroke-linecap: butt; stroke-dashoffset: 0; stroke-linejoin: miter; stroke-miterlimit: 4; is-custom-font: none; font-file-url: none; fill: rgb(47,46,67); fill-rule: nonzero; opacity: 1;"/>
</g>
		<g transform="matrix(1 0 0 1 303.6713 -7)">
<path stroke-linecap="round" d="m 739.5 338.5 s 35 -48 35 -67 h -9.66817 s -9.47127 29 -30.90155 33.5 l 5.56972 33.5 Z" transform="translate(-754.2151, -305)" style="stroke: none; stroke-width: 0; stroke-dasharray: none; stroke-linecap: butt; stroke-dashoffset: 0; stroke-linejoin: miter; stroke-miterlimit: 4; is-custom-font: none; font-file-url: none; fill: rgb(47,46,67); fill-rule: nonzero; opacity: 1;"/>
</g>
		<g transform="matrix(1 0 0 1 253.5974 -159.4956)">
<path stroke-linecap="round" d="m 648.55758 267.76115 c -1.88105 14.64425 -17.07902 25.44128 -31.8252 24.70468 c -14.74618 -0.73659 -27.89553 -11.27348 -34.30491 -24.57431 s -6.79627 -28.87606 -3.83867 -43.34136 c -14.83675 -19.96988 -23.43506 -44.50715 -24.30853 -69.37002 c -0.47906 -13.63633 1.64142 -28.12783 10.26209 -38.70436 c 6.91025 -8.47805 17.74025 -13.62087 28.67775 -13.61816 s 21.76495 5.15091 28.67099 13.63238 l -1.87434 -0.22424 c -1.69628 -13.68469 -3.39489 -27.50677 -2.01779 -41.22725 s 6.11615 -27.52861 15.71654 -37.42712 c 9.88278 -10.18967 23.82911 -15.27587 37.53118 -18.98428 c 19.91186 -5.38905 41.04444 -8.53752 61.12158 -3.80123 s 38.92927 18.65177 44.94536 38.38323 c 15.83791 -0.57463 32.26505 1.18973 46.07832 8.95912 c 13.81327 7.76938 24.48078 22.5371 23.85478 38.37307 c -0.62599 15.83597 -15.075 30.86946 -30.81686 29.03541 c 10.22069 6.54369 20.25733 13.78441 27.59861 23.44816 c 7.34128 9.66374 11.74254 22.14775 9.4097 34.05741 c -2.33284 11.90967 -12.52366 22.55005 -24.64852 23.06973 l -2.65531 1.36037 c 14.59379 13.63762 14.0782 38.66701 2.15762 54.69397 c -11.92058 16.02696 -32.43661 23.82266 -52.37934 24.94117 s -39.70214 -3.5792 -59.12383 -8.24411 c -22.71134 -5.45506 -45.42268 -10.91012 -68.13402 -16.36518 l -0.09721 1.22292 Z" transform="translate(-704.1412, -152.5044)" style="stroke: none; stroke-width: 0; stroke-dasharray: none; stroke-linecap: butt; stroke-dashoffset: 0; stroke-linejoin: miter; stroke-miterlimit: 4; is-custom-font: none; font-file-url: none; fill: rgb(1,102,48); fill-rule: nonzero; opacity: 1;"/>
</g>
		<g transform="matrix(1 0 0 1 -153.9165 -234.4922)">
<path stroke-linecap="round" d="m 351.88506 97.01872 c -0.33549 0.77185 -0.68641 1.53545 -1.0523 2.29045 c -29.87988 1.19995 -77.12988 2.62988 -109.22998 1.21997 c -0.194 -0.37879 -0.38428 -0.75971 -0.57074 -1.14275 c -2.01628 -4.1419 1.28568 -8.90968 5.8639 -8.39924 l 0.10698 0.01196 s 6 -18 22 -13 c 0 0 36 -56.36987 71 3.32007 c 0 0 0.19833 -0.03583 0.56754 -0.06852 c 8.47649 -0.75046 14.70681 7.96377 11.3146 15.76806 Z" transform="translate(-296.6274, -77.5078)" style="stroke: none; stroke-width: 0; stroke-dasharray: none; stroke-linecap: butt; stroke-dashoffset: 0; stroke-linejoin: miter; stroke-miterlimit: 4; is-custom-font: none; font-file-url: none; fill: rgb(255,255,255); fill-rule: nonzero; opacity: 1;"/>
</g>
		<g transform="matrix(1 0 0 1 -243.6739 -103.2733)">
<path stroke-linecap="round" d="m 324.81633 250.37235 c -0.7161 1.6475 -1.46513 3.27738 -2.24611 4.88892 c -63.77801 2.56127 -164.63218 5.61343 -233.1492 2.604 c -0.4141 -0.80852 -0.82023 -1.62158 -1.21823 -2.43917 c -4.30371 -8.8408 2.74425 -19.01754 12.51639 -17.92801 l 0.22835 0.02553 s 12.80688 -38.42064 46.95856 -27.74824 c 0 0 76.84128 -120.32036 151.54807 7.08662 c 0 0 0.42333 -0.07649 1.2114 -0.14626 c 18.09291 -1.60185 31.39139 16.9985 24.15078 33.65661 Z" transform="translate(-206.87, -208.7267)" style="stroke: none; stroke-width: 0; stroke-dasharray: none; stroke-linecap: butt; stroke-dashoffset: 0; stroke-linejoin: miter; stroke-miterlimit: 4; is-custom-font: none; font-file-url: none; fill: rgb(255,255,255); fill-rule: nonzero; opacity: 1;"/>
</g>
</g>
</g>
</svg>